<svg width="1017" height="352" viewBox="0 0 1017 352" xmlns="http://www.w3.org/2000/svg"><g fill="none" fill-rule="nonzero"><path fill="#F5EB59" d="M113.6 309.6l-49.2 19.7-2.4-43.6-57 15.7 10.7-127 17.8-2.9-6.2-87.1 16.9 1.7-7.3-80.2L148.8 33l-.5-4.9 204.2 12.3-1 6.6h268.9v-7.2l169.2-4.1 177.6-11.1 44.2-7.7-22.4 216-45.1-10.7 8.4 102.8-71.4-15.1-139.5 6v-12.7l-465.8-.7h-5.3l-47.8 10.7L115 345.4z"/><path d="M41.9 11.8L153.8 39l-.6-6 42.8 2.6 111.2 6.7 39.9 2.4-1.1 6.9H624.7v-7.3l164.9-4 177.9-11.1 38.6-6.7-21.2 205-46.2-11 8.5 102.9-66-13.9-135.4 5.8v-12.5l-470.1-.8h-5.8l-48.5 10.8-102.1 30.6-1.4-36.4-1.3.5-47.9 19.3-2.4-43-5.1 1.4-51 14.1 4.3-51.2 3.2-38.2 2.3-27.7 18.5-2.9-3.1-43.8-3-42.1 17 1.7-2.7-29.5-4.8-49.8M31.8 0l1.1 12.6 4.5 49.8L39.2 81l-6.1-.6-10.7-1 .8 10.7 3 42.1 2.5 35.6-10.3 1.6-7 1.1-.6 7.1-2.3 27.7-3.2 38.2L1 294.7l-1 12.8 12.5-3.5 45.3-12.5 1.8 31.8.7 12.6 11.7-4.7 37.4-15 .9 23.6.5 11.7 11.2-3.3 101.8-30.5 47.2-10.6h4.8l461.2.7v12.9l9.4-.4 134.2-5.8 64.9 13.6 11.9 2.5-1-12.1L949 228l34.1 8.1 10 2.4 1.1-10.2 21.2-205 1.2-11.9-11.8 2-38.1 6.6-177.3 11.2-164.7 4-8.8.2v7.1H356.7l1-6.3-9.9-.6-39.9-2.4-111.2-6.7-42.8-2.6-10.6-.6.4 3.9L44.1 3 31.8 0z" fill="#000"/><path fill="#3FB8DC" d="M846.3 272.9v-207h123.3l-7.3 57.5-62.2-6.2 1.4 20h59.4l-6.7 52.8-49.4-4.9 6.1 87.8z"/><path d="M963.9 70.9L958 118l-63.2-6.3 2.1 30.4h58.4l-5.3 42.5-50.5-5 6.1 88.4h-54.3V71H963.9m11.3-10H841.3v216.8h74.8l-.7-10.6-5.3-76.6 38.8 3.9 9.6 1 1.2-9.6 5.3-42.5 1.4-11.2H906l-.6-9.4 51.5 5.1 9.6 1 1.2-9.6 5.9-47.1 1.6-11.2z" fill="#000"/><g fill="#000"><path d="M193.7 217.5l8.6-3.1.4-78.5-23.3-1.9-5.3-56.7 109.5 6.8-10.1 67.8h-27.6l-.8 112.6-53.2 12.3z"/><path d="M178.1 81.1l101.3 6.3-9 60.9h-28l-.8 113.3-45.9 10.6 1.6-52.2 8.7-3.2.4-84.4-23.6-1.8-4.7-49.5m-7.9-7.7l.8 8.3 4.6 49.6.6 6 6 .5 16.9 1.3-.3 72.7-4 1.5-4.6 1.7-.1 4.9-1.6 52.2-.3 9.3 9.1-2.1 45.9-10.6 5.5-1.3v-5.7l.8-106.2H276.6l.9-6.1 9-60.9 1.1-7.7-7.8-.5L178.5 74l-8.3-.6z"/></g><g fill="#000"><path d="M456.6 264.8l-46-172.1h60.3l10.7 134.2h1l.4-134.2h49.2l-8.3 172.1z"/><path d="M528.4 96.2l-7.9 164.9H459.3l-44-164.9h52.3l10.7 134.3h7.9l.3-134.3h41.9m7.6-7.1h-56.6v7.2l-.1 55.3-4.5-55.9-.5-6.6H406l2.4 9 44 164.9 1.4 5.3h73.5l.3-6.8 7.9-164.9.5-7.5z"/></g><g fill="#000"><path d="M524.6 264.8l9.5-172.1h100.3l-5 48.7-59.3-1.2 1.4 81.8 26.4-.3.6-20.4-25.5-3.5-.7-41.5 55.5 1.1-5.8 107.4z"/><path d="M630.4 96.2l-4.2 41.5-59.7-1.2 1.5 89.1 33.4-.4.8-27.1-25.7-3.5-.6-34.7 48.1.9-5.4 100.3h-90.2l9-164.9h93m7.9-7.1H530.6l-.4 6.8-9 164.9-.4 7.6h104.6l.4-6.8 5.4-100.3.4-7.4-7.4-.1-48.1-.9h-2.2l-.1-8.9 52.2 1.1 6.6.1.7-6.6 4.2-41.5.8-8zM575 218.4l-.3-16.7.8.1 19.3 2.6-.4 13.8-19.4.2z"/></g><g fill="#000"><path d="M624.6 269.6l15.5-204.3h87.2v205.5l-102.7-1.2zm64.6-46.7l1.6-108.1h-6.1l-7.6 107.5 12.1.6z"/><path d="M723.1 69.6v197l-93.9-1.1L644 69.6h79.1m-29.7 157.7l1.8-116.9h-14.4l-8.1 115.8 20.7 1.1M731.6 61h-95.4l-.6 7.9-14.8 195.9-.7 9.1 9.1.1 93.8 1 8.6.1V61zm-49.8 157.2l4.1-58.5-.9 58.7-3.2-.2z"/></g><g fill="#000"><path d="M306.6 264.8l-3.7-76.9h-5.1l-5.5 76.9H249l1.1-109.4h23l9.6-62.7h60.9l4.9 172.1h-41.9zm-4.2-106.2v-27.4h-.4l-2.4 27.4h2.8z"/><path d="M340.1 96.2l4.7 164.9H310l-3.7-76.9h-11.9l-5.5 76.9h-36.3l1-102.2h22.5l9.6-62.7h54.4m-44.4 66H306v-34.6h-7.3l-3 34.6m51.4-73.1h-67.5l-.9 6.1-8.7 56.6h-23.5l-.1 7.1-1 102.2-.1 7.2h50.2l.5-6.7 4.1-56.4 2.7 56.2.3 6.8H352.1l-.2-7.4L347.3 96l-.2-6.9z"/></g><g fill="#000"><path d="M419.6 264.8l-30.5-51 8.6 51h-47.5l-4.9-172.1H409l24.8 99.2-19.1.7 43.3 72.2h-38.4zm-36.7-106.2l-6.1-26.6h-.8l3.4 26.6h3.5z"/><path d="M406.2 96.2l23.1 92.2-20.7.8 43.2 71.9h-30.1l-39.3-65.6 11.1 65.6h-39.8L349 96.2h57.2m-30 66h11.2l-7.8-33.7h-7.8l4.4 33.7m35.6-73.1h-70.2l.2 7.4 4.7 164.9.2 7H402l-1.4-8.4-4.7-28 19.7 32.8 2.1 3.5H464.6l-6.5-10.9L421 196l8.6-.3 8.8-.3-2.1-8.6-23.1-92.2-1.4-5.5z"/></g><g fill="#000"><path d="M135.9 225.3l-16.5 4.7.4 32.4-28.3 11.7-1.9-35.7-45.7 13 3.6-43.9 37.8-6.2-1.5-20.1-17.2 1.2-3.5-51 16.2 1.6-6.1-68.8 43 10.8 1.2 61.9 13.9 1.4-2.4-51 26.7 5.2 3.3 48.6 33.3 3.4v28.9l-30.7 2.2.7 13.3 30-3.4v23.6l-27.2 7.8 3.4 63.2-29.8 11-2.7-65.8zm-17.4-29.2l15.3-2.5-.6-15.7-15 1.1.3 17.1z"/><path d="M77.1 69.3l35.4 8.9 1.2 62.3 21.2 2.1-2.3-50.6 19.5 3.8 3.3 48.9 33.1 3.3v22.3l-30.9 2.2 1.2 20.6 29.8-3.4v16.9l-27.4 7.8 3.4 63.4-22.7 8.4-2.5-65.6-23.6 6.7.4 32.8-21.4 8.9-1.9-35.1-45 12.9 2.9-35.9 38.3-6.3-2.1-26.9-17.2 1.2-3-43.1 16.3 1.6-6-68.1m37.9 131l22.6-3.7-.9-22.6-22.1 1.6.4 24.7M69.1 59.9l.9 10 5.3 59.4-7.6-.8-8.5-.9.6 8.5 3 43.1.5 7.2 7.2-.5 10-.7 1 13.3-31.8 5.2-5.5.9-.5 5.6-2.9 35.9-.8 10.3 10-2.8 36.4-10.4 1.4 26.1.6 10.1 9.4-3.9 21.4-8.9 4.5-1.9-.1-4.9-.3-27.3 9.5-2.7 2.1 56.5.4 9.9 9.3-3.4 22.7-8.4 5-1.8-.3-5.3-3.1-57.7 21.9-6.2 5.2-1.5V181.6l-8 .9-22.2 2.5-.3-6 23.9-1.7 6.7-.5v-35.3l-6.5-.7-27.1-2.7-2.9-42.8-.4-5.5-5.4-1.1-19.5-3.8-9-1.7.4 9.1 2 42.3-6.6-.7-1.4-55.9-.1-5.5-5.3-1.3-35.4-8.9-9.8-2.4zm52.8 122.4l7.9-.6.4 8.8-8.1 1.3-.2-9.5z"/></g><path fill="#3FB8DC" d="M198.9 208.2l8.6-3.1.4-77.6-23.2-1.8-5.4-58L290 74.6l-10.2 69h-27.5l-.8 112.5-54.4 12.6z"/><path d="M183.9 72.2l101.3 6.3-9 60.9h-28l-.8 113.3-45.9 10.6 1.6-52.2 8.7-3.2.4-84.4-23.6-1.8-4.7-49.5m-9.3-9l.9 9.7 4.6 49.6.7 7 7 .5 15.8 1.2-.3 70.8-3.2 1.2-5.3 1.9-.2 5.7L193 263l-.3 10.9 10.6-2.4 45.9-10.6 6.4-1.5v-6.6l.8-105h26.9l1.1-7.1 9-60.9 1.3-9-9.1-.6-101.3-6.3-9.7-.7z" fill="#000"/><path fill="#3FB8DC" d="M461.9 256.5L415.7 83.2h61.6l10.5 132.4.4-132.4h50.4l-8.3 173.3z"/><path d="M534.2 87.3l-7.9 164.9H465.2l-44-164.9h52.3l10.7 134.3h7.9l.3-134.3h41.8M543 79h-59v8.3l-.1 26.3-2.1-27-.6-7.7h-70.9l2.8 10.5 44 164.9 1.7 6.2h75.6l.4-8 7.9-164.9.3-8.6z" fill="#000"/><path fill="#3FB8DC" d="M529.8 256.5l9.5-173.3h101.5l-5.1 49.9-59.2-1.2 1.4 80.6 25.2-.3.6-19.3-25.5-3.5-.7-42.6 56.8 1.1-5.9 108.6z"/><path d="M636.2 87.3l-4.2 41.5-59.7-1.2 1.5 89.1 33.4-.4.8-27.1-25.7-3.5-.6-34.7 48.1.9-5.4 100.3h-90.2l9-164.9h93m9.3-8.3H535.3l-.4 7.9-9 164.9-.5 8.8h106.9l.4-7.9 5.4-100.3.5-8.6-8.7-.2-48.1-.9h-1l-.1-6.5 51 1.1 7.7.2.8-7.7 4.2-41.5 1.1-9.3zM582 208.3l-.2-14.2 17.7 2.4-.4 11.6-17.1.2z" fill="#000"/><path d="M627.5 271.7L643.1 66h88.6v207l-104.2-1.3zm64.6-48.2l1.6-106.7H689L681.6 223l10.5.5z" fill="#3FB8DC"/><path d="M726.7 71v197l-93.9-1.1L647.7 71h79M697 228.8l1.8-116.9h-14.4l-8.1 115.8 20.7 1.1M736.6 61H638.5l-.7 9.2L623 266.1l-.8 10.6 10.6.1 93.9 1.1 10.1.1V61h-.2zm-49.7 157.3l.4-5.8-.1 5.8h-.3z" fill="#000"/><path d="M311.8 256.5l-3.7-76.9h-4l-5.5 76.9h-44.4l1.1-110.6h23.1l9.6-62.7h62l4.9 173.3h-43.1zm-4.2-107.4v-18l-1.6 18h1.6z" fill="#3FB8DC"/><path d="M345.9 87.3l4.7 164.9h-34.8l-3.7-76.9h-11.9l-5.5 76.9h-36.3l1-102.2H282l9.6-62.7h54.3m-44.4 66h10.3v-34.6h-7.3l-3 34.6M354 79h-69.6l-1.1 7.1-8.5 55.6h-23.6l-.1 8.3-1 102.2-.1 8.4H302.5l.6-7.8 2.6-36.5 1.7 36.3.4 8h51.4l-.2-8.6-4.7-164.9-.3-8.1z" fill="#000"/><path d="M425.1 256.5L396 207.9l8.2 48.5h-48.8l-5-173.3h64.8l25.1 100.4-18.8.7 43.3 72.2h-39.7v.1zm-37.2-107.4l-5.1-22.2 2.8 22.2h2.3z" fill="#3FB8DC"/><path d="M412 87.3l23.1 92.2-20.7.8 43.2 71.9h-30.1l-39.3-65.6 11.1 65.6h-39.8l-4.7-164.9H412m-30 66h11.2l-7.8-33.7h-7.8l4.4 33.7M418.5 79h-72.3l.2 8.6 4.7 164.9.2 8.1h57.8l-1.7-9.8-3.7-21.7 16.4 27.4 2.4 4.1H472.1l-7.6-12.7-35.9-59.8 6.6-.3 10.3-.4-2.5-10-23.1-92.2-1.4-6.2z" fill="#000"/><path d="M141.7 216.4l-16.5 4.7.4 32.4-28.3 11.7-1.9-35.7-45.7 13 3.6-43.9 37.8-6.2-1.5-20.1-17.2 1.2-3.5-51 16.2 1.6L79 55.3l43 10.8 1.2 61.9 13.9 1.4-2.4-51 26.7 5.2 3.3 48.6 33.3 3.4v28.9l-30.7 2.2.7 13.3 30-3.4v23.6l-27.2 7.8 3.4 63.2-29.8 11-2.7-65.8zm-17.4-29.2l15.3-2.5-.6-15.7-15 1.1.3 17.1z" fill="#18E889"/><path d="M82.9 60.4l35.4 8.9 1.2 62.3 21.2 2.1-2.4-50.6 19.5 3.8 3.3 48.9 33.1 3.3v22.3l-30.9 2.2 1.2 20.6 29.8-3.4v16.9l-27.4 7.8 3.4 63.4-22.7 8.4-2.5-65.6-23.6 6.7.4 32.8-21.4 8.9-1.8-35.1-45 12.9 2.9-35.9 38.3-6.3-2.1-26.9-17.2 1.2-3-43.1 16.3 1.6-6-68.1m37.9 131l22.6-3.7-.9-22.6-22.1 1.6.4 24.7M74.9 51l.9 10 5.3 59.4-7.6-.8-8.5-.9.6 8.5 3 43.1.5 7.2 7.2-.5 10-.7 1 13.3-31.8 5.2-5.5.9-.5 5.6-2.9 35.9-.8 10.3 10-2.8L92 234.4l1.4 26.1.6 10.1 9.4-3.9 21.4-8.9 4.5-1.9-.1-4.9-.3-27.3 9.5-2.7 2.1 56.5.4 9.9 9.3-3.4 22.7-8.4 5-1.8-.3-5.3-3.1-57.7 21.9-6.2 5.2-1.5V172.8l-8 .9-22.2 2.5-.3-6 23.9-1.7 6.7-.5v-35.5l-6.5-.7-27.1-2.7-3.1-42.7-.4-5.5-5.4-1.1-19.5-3.8-9-1.7.4 9.1 2 42.3-6.6-.7-1.1-55.9-.1-5.5-5.3-1.3-35.4-8.9-9.7-2.4zm52.8 122.4l7.9-.6.4 8.8-8.1 1.3-.2-9.5z" fill="#000"/><path fill="#C0E6F0" d="M183.9 72.1l101.3 6.3-9 61h-28l-.8 113.3-46 10.6 1.6-52.2 8.7-3.1.4-84.4-23.6-1.9zM421.1 87.3l44 164.9h61.2l7.9-164.9h-41.9l-.3 134.3h-7.9L473.4 87.3zM584.8 87.3h-41.5l-9.1 164.9h90.2l5.4-100.3-48.1-.9.6 34.7 25.7 3.5-.8 27.1-33.4.4-1.5-89.1 59.7 1.2 4.2-41.5z"/><path d="M629.3 270l15.3-202.3h85.3v203.5L629.3 270zm64.5-44.7l1.7-110.2h-8l-7.7 109.5 14 .7z" fill="#FC0080"/><path d="M726.7 70.9v197l-93.9-1.1 14.8-195.9h79.1M697 228.7l1.8-116.9h-14.4l-8.1 115.8 20.7 1.1m36.2-164.3h-91.5l-.5 6-14.8 195.9-.5 6.9 6.9.1 93.9 1.1 6.6.1V64.4h-.1zm-42.7 53.9h1.7l-1.6 103.5-7.3-.4 7.2-103.1z" fill="#000"/><path d="M345.9 87.3h-54.3L282 150h-22.5l-1 102.2h36.3l5.5-76.9h11.9l3.7 76.9h34.8l-4.8-164.9zm-34.1 65.9h-10.3l3-34.6h7.3v34.6zM414.4 180.3l20.7-.8L412 87.3h-57.2l4.7 164.9h39.8l-11.1-65.6 39.3 65.6h30.1l-43.2-71.9zM382 153.2l-4.3-33.7h7.8l7.8 33.7H382z" fill="#C0E6F0"/><path fill="#8CA9AC" d="M389.8 114.3l-12.7-.7.5 6h7.8l7.8 33.7 7.2-.1zM317 153.2l2.2-39.6h-13.8l-.9 5.1 7.3-.1v34.7zM295.7 87.3h-4.1l-9.6 62.8h4.9zM277.3 132l-29.1.7v7.2l28-.5zM414.4 180.4l20.7-.9-1.8-7-23.3.9zM582.3 185.7l25.7 3.5-.8 27.2 4-.7 2.6-34.1-24.1-3.3-.5-27.2-7.5-.1z"/><path fill="#C5006E" d="M705.7 228.7l1.9-125.6h-22.7l-.4 8.8 14.3-.1-1.8 117z"/><path fill="#8CA9AC" d="M572.3 127.6l59.7 1.2.7-7.5-60.4-1.3zM499.4 221.6l.3-134.3h-7.4l-.3 134.3zM265.8 244.9l.9-94.9h-7.3l-1 102.2h36.3l.5-7.3zM541.6 244.9l8.6-157.6h-6.9l-9.1 164.9h90.2l.4-7.3zM434.9 244.9l-41.7-61.2-5 3 12 20 27.3 45.5h30l-4.4-7.3z"/><path fill="#8CA9AC" d="M519.3 244.9h-46.8l-42-157.6h-9.3l1.9 7.4 38.7 144.9 1.4 5.3 1.9 7.3h61.2l.4-7.3z"/><path fill="#C5006E" d="M641.6 258l14.2-187.1h-8.1l-14.9 195.9 93.9 1.1V259z"/><path fill="#8CA9AC" d="M366.9 244.9l-4.5-157.6h-7.6l4.7 164.9h39.8l-1.2-7.3zM211.7 208l7.4-2.7.4-89.1-23.6-1.8-3.9-41.8-8.1-.5 4.6 49.6 23.6 1.9zM208.8 255.9l1.5-47.4-7.3 2.6-1.6 52.2 46-10.6V247zM323.2 244.9l-3.6-75.1h-18.8l-.5 5.6 11.8-.1 3.7 76.9h34.8l-.2-7.3z"/><g fill="#15B568"><path d="M140.8 133.6l8.6.9-2.4-49.8-8.5-1.6 2 42.1h-.1zM89 128.4l8.7.9-5.9-66.7-8.5-2.2 5.2 59.5h-.3zM122 251.2l-.1-6.6-13.3 5.5-1.8-34.4-44.3 12.6 2.2-26.6 38.8-6.4-2.6-34.9-17.1 1.2-2.4-33.9-8.4-.9 2.9 43.1 17-1.2v.6h.3l1.4 19h-.2l.5 7.3-38.3 6.3-2.9 35.9 45-12.8.1 1.6h.2l1.8 33.4zM170.3 268.9l-.3-6.6-14.2 5.3-2.5-65.2-31.7 9v7l23.6-6.7v1.7h.1l2.5 63.9zM120.9 192.5l31-5.1-1.3-30.6-30.3 2.2.1 7.7 22.1-1.6v.7h.1l.6 14.5-.1.1.3 7.3-22.6 3.7zM194.3 153.7l-31.2 2.2.4 7.7 30.8-2.2V139zM164.8 185.1l29.5-3.4v9l-27.6 7.9.4 6.8 27.2-7.7v-16.9l-29.6 3.4z"/></g><g><path fill="#FC0080" d="M848 271.2V67.7h119.6l-6.8 53.8-62.5-6.2 1.6 23.6H959l-6.3 49.2-49.7-4.9 6 88z"/><path d="M963.9 70.9L958 118l-63.2-6.3 2.1 30.4h58.4l-5.3 42.5-50.5-5 6.1 88.4h-54.3V71H963.9m7.4-6.6H844.7v210h67.8l-.5-7-5.6-80.7 42.8 4.3 6.3.6.8-6.3 5.3-42.5.9-7.3H903l-1.1-16.7 55.5 5.5 6.3.6.8-6.3 5.9-47.1.9-7.1z" fill="#000"/></g><path fill="#C5006E" d="M860 259.2l.3-188.3h-9V268l54.9.5-.6-8.8zM894.8 111.7v-8.6l64.2 6.7-1 8.2zM899.5 179.6l-1.3-9.3 52.7 6.4-1 7.9z"/><g><path fill="#3FB8DC" d="M733.5 272.9v-207h123.3l-7.3 57.5-62.1-6.2 1.3 20h59.4l-6.6 52.8-49.5-4.9 6.1 87.8z"/><path d="M851.1 70.9l-5.9 47.1-63.2-6.3 2.1 30.4h58.4l-5.3 42.5-50.5-5 6.1 88.4h-54.3V71H851.1m11.3-10H728.5v216.8h74.8l-.7-10.6-5.3-76.6 38.8 3.9 9.6 1 1.2-9.6 5.3-42.5 1.4-11.2H793.2l-.6-9.4 51.5 5.1 9.6 1 1.2-9.6 5.9-47.1 1.6-11.2z" fill="#000"/></g><g><path fill="#FC0080" d="M735.2 271.2V67.7h119.6l-6.8 53.8-62.5-6.2 1.6 23.6h59.1l-6.2 49.2-49.8-4.9 6 88z"/><path d="M851.1 70.9l-5.9 47.1-63.2-6.3 2.1 30.4h58.4l-5.3 42.5-50.5-5 6.1 88.4h-54.3V71H851.1m7.4-6.6H732v210h67.8l-.5-7-5.6-80.7 42.8 4.3 6.3.6.8-6.3 5.3-42.5.9-7.3H790.1L789 119l55.5 5.5 6.3.6.8-6.3 5.9-47.1 1-7.3z" fill="#000"/></g><path fill="#C5006E" d="M747.3 259.2l.2-188.3h-9V268l54.9.5-.6-8.8zM782 111.7v-8.6l64.2 6.7-1 8.2zM786.7 179.6l-1.3-9.3 52.7 6.4-1 7.9z"/></g></svg>