<?xml version="1.0" encoding="utf-8"?>
<!-- Generator: Adobe Illustrator 22.1.0, SVG Export Plug-In . SVG Version: 6.00 Build 0)  -->
<svg version="1.1" id="Capa_1" xmlns="http://www.w3.org/2000/svg" xmlns:xlink="http://www.w3.org/1999/xlink" x="0px" y="0px"
	 viewBox="0 0 800.4 108.4" style="enable-background:new 0 0 800.4 108.4;" xml:space="preserve">
<style type="text/css">
	.st0{fill:#00D16F;}
</style>
<path class="st0" d="M65.7,12H24.4C14.8,12,7,19.7,7,29.3c0,9.6,7.8,17.3,17.3,17.3h3.3v35.1c0,9.3,7.5,16.8,16.8,16.8h1
	c9.3,0,16.8-7.5,16.8-16.8V46.6h3.3c9.6,0,17.3-7.8,17.3-17.3C83.1,19.7,75.3,12,65.7,12z"/>
<path class="st0" d="M294.3,10.1c-10,0-18.1,8.1-18.1,18.1c0-10-8.1-18.1-18.1-18.1S240,18.2,240,28.2v32.3
	c0,20,16.2,36.2,36.2,36.2h0h0c20,0,36.2-16.2,36.2-36.2V28.2C312.5,18.2,304.3,10.1,294.3,10.1z"/>
<path class="st0" d="M233.1,34.1v-1.9c0-13-10.6-23.6-23.6-23.6h-26.8c-1.2,0-2.3,0.1-3.4,0.2c-0.9-0.2-1.9-0.2-2.8-0.2
	c-9.6,0-17.3,7.8-17.3,17.3v6.2v1.9v45.3c0,9.6,7.8,17.3,17.3,17.3c8.8,0,16-6.5,17.2-14.9l9.9,9.9c6.8,6.8,17.8,6.8,24.5,0
	s6.8-17.8,0-24.5l-10.7-10.7C226.5,53.2,233.1,44.4,233.1,34.1z"/>
<path class="st0" d="M151.3,72.4L132,26.7c-1-5.6-4.8-10.6-10.5-12.9h0c-3.9-1.6-8.1-1.7-11.8-0.5c-0.6,0.2-1.3,0.4-1.9,0.7
	c-5.5,2.3-9.2,7.2-10.3,12.7L78.8,72.7c-3.6,8.9,0.6,19,9.5,22.6c8.9,3.6,19-0.6,22.6-9.5l4.1-10.1l4.3,10.2
	c3.7,8.8,13.9,13,22.7,9.3h0C150.8,91.4,155,81.3,151.3,72.4z"/>
<path class="st0" d="M417.9,10.1h30.3c12.1,0,21.8,9.8,21.8,21.8v44.4c0,12.1-9.8,21.8-21.8,21.8h-30.3c-12.1,0-21.8-9.8-21.8-21.8
	V31.9C396.1,19.9,405.9,10.1,417.9,10.1z"/>
<path class="st0" d="M572.4,10.1h30.3c12.1,0,21.8,9.8,21.8,21.8v44.4c0,12.1-9.8,21.8-21.8,21.8h-30.3c-12.1,0-21.8-9.8-21.8-21.8
	V31.9C550.5,19.9,560.3,10.1,572.4,10.1z"/>
<path class="st0" d="M691.2,8.7L691.2,8.7c-9.5,0-17.3,7.7-17.3,17.2l-6.2-9.3c-3.4-5-8.9-7.7-14.5-7.7c-0.8-0.1-1.5-0.2-2.3-0.2h0
	c-9.6,0-17.3,7.8-17.3,17.3v53.4c0,9.6,7.8,17.3,17.3,17.3h0c9.4,0,17.1-7.5,17.3-16.9l6.1,9.1c3.6,5.4,9.7,8.1,15.8,7.7
	c0.4,0,0.8,0.1,1.2,0.1h0c9.6,0,17.3-7.8,17.3-17.3V26C708.6,16.4,700.8,8.7,691.2,8.7z"/>
<path class="st0" d="M775.2,42.9c7.7-1.8,13.4-8.7,13.4-16.9c0-9.6-7.8-17.3-17.3-17.3h-35.4c-9.6,0-17.3,7.8-17.3,17.3v53.4
	c0,9.6,7.8,17.3,17.3,17.3c9.6,0,17.3-7.8,17.3-17.3v-2.2h18.1c9.6,0,17.3-7.8,17.3-17.3C788.6,51.6,782.9,44.7,775.2,42.9z"/>
<path class="st0" d="M354.2,52.3c0.2-3,1.7-10.7,13.1-10.7h8.5c7.8,0,14.2-6.3,14.2-14.2v-3.1c0-7.8-6.3-14.2-14.2-14.2h-39.5
	c-9.3,0-16.8,7.5-16.8,16.8v14.6h0c0,0.2,0,0.3,0,0.5v11.4v4.8v12.9c0,21.9,11.6,25.6,24.4,25.6h29.9c8.9,0,16.1-8.9,16.1-19.8V64.8
	v-1v-4.4c0-8.1-6.6-14.6-14.6-14.6h-7.6c-6.2,0-11.4,3.8-13.6,9.2V52.3z M352.9,63.9c0.1-0.2,0.2-0.4,0.3-0.6v0.8L352.9,63.9z"/>
<path class="st0" d="M546.1,32.9L546.1,32.9c0-12.6-10.2-22.8-22.8-22.8h-10v0h-13.9c-12.5,0-22.6,10.1-22.6,22.6v42.9
	c0,12.5,10.1,22.6,22.6,22.6h13.8v0H527c10.5,0,19-8.5,19-19v-3.8c0-10.6-8.6-19.2-19.2-19.2h-7.4c-4.2,0-6.3,2-6.2,6.1V46.1
	c-0.1,3.8,1.7,6.1,6.2,6.1h7.4C537.4,52.2,546.1,43.6,546.1,32.9z"/>
</svg>
