<?xml version="1.0" encoding="utf-8"?>
<!-- Generator: Adobe Illustrator 22.1.0, SVG Export Plug-In . SVG Version: 6.00 Build 0)  -->
<svg version="1.1" id="Capa_1" xmlns="http://www.w3.org/2000/svg" xmlns:xlink="http://www.w3.org/1999/xlink" x="0px" y="0px"
	 viewBox="0 0 841.9 320.7" style="enable-background:new 0 0 841.9 320.7;" xml:space="preserve">
<style type="text/css">
	.st0{fill:#00FC8E;}
	.st1{fill:#FF0075;}
	.st2{fill:#D20062;}
	.st3{fill:#00B2D8;}
	.st4{fill:#94F7FF;}
	.st5{fill:#FFE600;}
	.st6{fill:#E2BC00;}
	.st7{fill:#79A0A3;}
</style>
<g>
	<polygon class="st0" points="98.9,272 59.1,288.6 57.1,252.2 11.1,265.3 19.6,161.1 34.2,158.7 29.1,86.1 42.8,87.5 36.9,20.6 
		127.5,43.3 127.1,39 290.6,49.2 289.7,54.8 607.3,54.8 607.3,48.8 720.4,39.8 724.5,44 731.4,36 817.8,26.5 824.4,295.1 
		752.6,282.2 607.3,277.5 607.3,267.1 229.3,266.5 225,266.5 186.1,275.5 100,302.1 	"/>
	<path d="M40.1,24.3l90.6,22.7l-0.5-5l34.7,2.2l90.1,5.6l32.3,2l-0.9,5.8H307h7.9h21h29.9H389v0h31.4h27.5h6.4h20.1h8h23.2h13.8
		h25.2v0h27.6h37.9v-6.1l27.4-2.2l67.9-5.4l13.9-1.1l5.4,5.5l0.5-0.6l7.7-8.9l11.7-1.3l38.4-4.2l32.2-3.5l0.8,32.3l4.8,193.2
		l0.9,36.5l-35.9-6.5l-32.7-5.9l-6.2-0.2l-107.8-3.5l-28.8-0.9v-10.5l-380.8-0.6h-4.7l-39.2,9.1l-82.7,25.6l-1.2-30.5l-1.1,0.4
		l-38.8,16.1l-2-35.9l-4.2,1.2l-41.3,11.8l3.5-42.8l2.6-31.9l1.9-23.2l15-2.5l-2.5-36.7l-2.4-35.2l13.8,1.4L43.8,66L40.1,24.3
		 M33.7,16.9l0.7,7.9l3.7,41.6l1.6,17.9l-6.9-0.7L26.1,83l0.5,6.7l2.4,35.2l2.2,31.5l-9.9,1.6l-4.4,0.7l-0.4,4.4l-1.9,23.2
		l-2.6,31.9L8.6,261L8,269.1l7.9-2.2l38.6-11l1.6,28.8l0.4,8l7.4-3.1l32.4-13.4l0.8,22.3l0.3,7.4l7.1-2.2l82.5-25.5l38.4-8.9h4.1
		l375.1,0.6v4.8v5.5l5.5,0.2l28.8,0.9l107.8,3.5l5.8,0.2l32.3,5.8l35.9,6.5l6.8,1.2l-0.2-6.9l-0.9-36.5l-4.8-193.2l-0.8-32.3
		l-0.2-6.2l-6.1,0.7l-32.2,3.5l-38.4,4.2L732.2,33l-2.2,0.2l-1.5,1.7l-4.2,4.9l-1-1.1l-1.9-1.9l-2.6,0.2L705,38.2L637,43.6
		l-27.4,2.2l-5.2,0.4v5.2v0.5h-32.2h-27.6l-25.2,0h-13.8h-23.2h-8h-20.1h-6.4h-27.5H389l-23.2,0H336h-21H307h-14l0.8-5.4l-6.2-0.4
		l-32.3-2l-90.1-5.6l-34.7-2.2L124,36l0.3,3.7L41.5,18.8L33.7,16.9L33.7,16.9z"/>
</g>
<g>
	<g>
		<g>
			<polygon points="633.3,252.7 633.3,209.2 676.3,128 666.6,127.1 666.6,144.6 633.3,144.6 633.3,79.7 705.6,73.9 722.8,91.4 
				722.8,135 680.1,214.5 747.5,215.7 747.5,256.5 			"/>
			<g>
				<path d="M704.4,77.2l15.2,15.5v41.6l-44.7,83.4l69.5,1.3v34.3l-107.8-3.5V210l44.9-84.7l-18-1.6v17.7h-27V82.6L704.4,77.2
					 M706.8,70.6l-3,0.2l-67.9,5.4l-5.9,0.5v5.9v58.7v6.4h6.4h25.8L630.8,207l-0.7,1.4v1.6v39.6v6.2l6.2,0.2l107.8,3.5l6.6,0.2v-6.6
					v-34.3v-6.3l-6.3-0.1l-59-1.1l39.8-74.2l0.8-1.4v-1.6V92.7v-2.6l-1.8-1.9l-15.2-15.5L706.8,70.6L706.8,70.6z M669.8,133.5v-2.9
					l1.5,0.1L669.8,133.5L669.8,133.5z"/>
			</g>
		</g>
		<g>
			<polygon points="748,255.8 748.5,131.7 722.5,137.3 722.5,91.2 742.8,67.6 785.8,62.9 790.8,263.5 			"/>
			<path d="M782.7,66.5l4.8,193.2l-36.3-6.5l0.5-125.5l-26,5.7V92.4l18.7-21.8L782.7,66.5 M788.9,59.4l-6.9,0.8l-38.4,4.2l-2.5,0.3
				l-1.6,1.9l-18.7,21.8l-1.5,1.8v2.4v40.9v7.9l7.7-1.7l18.2-4l-0.5,117.5l0,5.4l5.3,0.9l36.3,6.5l7.7,1.4l-0.2-7.8l-4.8-193.2
				L788.9,59.4L788.9,59.4z"/>
		</g>
	</g>
	<g>
		<g>
			<polygon points="173.6,198.8 181.2,196 181.6,126.2 160.9,124.6 156.2,74.2 253.4,80.2 244.5,140.5 220,140.5 219.3,240.6 
				172,251.5 			"/>
			<path d="M159.7,77.6l90.1,5.6l-8,54.1h-24.9L216.1,238l-40.8,9.4l1.4-46.4l7.7-2.8l0.3-75l-21-1.6L159.7,77.6 M152.7,70.8
				l0.7,7.4l4.1,44.1l0.5,5.3l5.4,0.4l15.1,1.2l-0.3,64.6l-3.5,1.3l-4.1,1.5l-0.1,4.3l-1.4,46.4l-0.3,8.3l8.1-1.9l40.8-9.4l4.9-1.1
				l0-5l0.7-94.4h18.6h5.5l0.8-5.4l8-54.1l1-6.9l-6.9-0.4l-90.1-5.6L152.7,70.8L152.7,70.8z"/>
		</g>
		<g>
			<polygon points="407.2,240.8 366.3,87.9 419.9,87.9 429.4,207.2 430.3,207.2 430.6,87.9 474.4,87.9 467,240.8 			"/>
			<path d="M471,91l-7,146.6h-12.8h-41.6L370.5,91H417l9.5,119.3h7L433.8,91H471 M477.7,84.7H471h-37.2h-6.4l0,6.4l-0.1,49.2
				l-4-49.6l-0.5-5.9H417h-46.5h-8.3l2.1,8l39.1,146.6l1.3,4.7h4.9h41.6H464h6.1l0.3-6.1l7-146.6L477.7,84.7L477.7,84.7z"/>
		</g>
		<g>
			<polygon points="467.7,240.8 476,87.9 565.2,87.9 560.8,131.2 508.1,130.1 509.3,202.8 532.7,202.5 533.3,181.6 510.6,181.7 
				510,144.4 559.4,145.4 554.2,240.8 			"/>
			<path d="M561.6,91l-3.8,36.9l-53.1-1.1l1.3,79.2l29.7-0.3l0.7-27.3l-22.8,0.1l-0.5-30.8l42.8,0.8l-4.8,89.1H471L479,91H516H561.6
				 M568.7,84.7h-7.1H516H479h-6l-0.3,6l-8,146.6l-0.4,6.7h6.7h80.1h6l0.3-6l4.8-89.1l0.4-6.6l-6.6-0.1l-42.8-0.8l-1.9,0l-0.1-7.9
				l46.4,1l5.9,0.1l0.6-5.9l3.8-36.9L568.7,84.7L568.7,84.7z M512.2,184.9l1.6,0l16.3,0l-0.4,14.6l-17.2,0.2L512.2,184.9
				L512.2,184.9z"/>
		</g>
		<g>
			<path d="M554.3,240.8l11.6-152.9h65.3v153.8L554.3,240.8z M602.6,205.8l1.2-80.9h-4.5l-5.7,80.5L602.6,205.8z"/>
			<path d="M627.9,91v147.4l-70.2-0.8L568.8,91H627.9 M605.7,209.1l1.3-87.5h-10.7l-6.1,86.7L605.7,209.1 M634.3,84.7h-6.4h-59.1
				h-5.9l-0.4,5.9l-11.1,146.6l-0.5,6.8l6.8,0.1l70.2,0.8l6.5,0.1v-6.5V91V84.7L634.3,84.7z M597.1,202.3l3.1-43.8l-0.7,43.9
				L597.1,202.3L597.1,202.3z"/>
		</g>
		<g>
			<path d="M273.9,240.8l-3.3-68.4h-4.5l-4.9,68.4h-38.4l0.9-97.2h20.4l8.5-55.8h54.1l4.3,153H273.9z M270.2,146.5v-24.4h-0.4
				l-2.1,24.4H270.2z"/>
			<path d="M303.7,91l4.2,146.6h-30.9l-3.3-68.4h-10.5l-4.9,68.4h-32.3l0.9-90.8h20l8.5-55.8H303.7 M264.2,149.6h9.2v-30.7h-6.5
				L264.2,149.6 M309.8,84.7h-6.2h-48.3h-5.5l-0.8,5.4l-7.7,50.3h-14.5h-6.3l-0.1,6.3l-0.9,90.8l-0.1,6.4h6.4h32.3h5.9l0.4-5.9
				l3.6-50.1l2.4,49.9l0.3,6.1h6.1h30.9h6.6l-0.2-6.6L310,90.9L309.8,84.7L309.8,84.7z"/>
		</g>
		<g>
			<path d="M374.4,240.8l-27.1-45.3l7.7,45.3h-42.2l-4.4-153h56.6L387,176l-16.9,0.6l38.5,64.1H374.4z M341.7,146.5l-5.4-23.6h-0.7
				l3,23.6H341.7z"/>
			<path d="M362.4,91l20.5,82l-18.4,0.7l38.4,63.9h-26.7l-34.9-58.3l9.9,58.3h-35.3L311.6,91H362.4 M335.7,149.6h10l-6.9-30h-6.9
				L335.7,149.6 M367.4,84.7h-5h-50.8H305l0.2,6.6l4.2,146.6l0.2,6.2h6.2h35.3h7.6l-1.3-7.4l-4.2-24.8l17.5,29.2l1.9,3.1h3.6h26.7
				h11.3l-5.8-9.7l-32.8-54.7l7.6-0.3l7.9-0.3l-1.9-7.6l-20.5-82L367.4,84.7L367.4,84.7z"/>
		</g>
	</g>
	<g>
		<g>
			<path d="M122.2,205.7l-14.7,4.2l0.3,28.8l-25.2,10.4L81,217.5l-40.6,11.6l3.2-39l33.6-5.5l-1.4-17.9l-15.3,1.1l-3.1-45.3
				l14.4,1.4l-5.4-61.1l38.2,9.6l1.1,55l12.3,1.2l-2.2-45.3l23.7,4.6l3,43.2l29.6,3v25.7l-27.3,2l0.7,11.8l26.6-3.1v21l-24.2,6.9
				l3,56.2l-26.5,9.8L122.2,205.7z M106.8,179.8l13.6-2.2l-0.6-14l-13.3,1L106.8,179.8z"/>
			<path d="M70,67.1l31.5,7.9l1.1,55.4l18.8,1.9l-2.1-45l17.3,3.4l3,43.4l29.4,3v19.9l-27.5,2l1,18.3l26.5-3v15l-24.3,6.9l3,56.4
				l-20.1,7.5l-2.2-58.3l-20.9,6l0.3,29.1l-19,7.9L84,213.4l-40,11.4l2.6-31.9l34-5.6l-1.8-23.9l-15.2,1.1l-2.7-38.3l14.4,1.5
				L70,67.1 M103.6,183.5l20.1-3.3l-0.8-20.1l-19.6,1.4L103.6,183.5 M62.9,58.7l0.8,8.9l4.7,52.8l-6.8-0.7L54,119l0.5,7.5l2.7,38.3
				l0.4,6.4l6.4-0.5l8.9-0.6l0.9,11.8l-28.3,4.6l-4.9,0.8l-0.4,5l-2.6,31.9l-0.7,9.2l8.9-2.5l32.3-9.2l1.3,23.2l0.5,9l8.3-3.5
				l19-7.9l4-1.7l-0.1-4.3l-0.3-24.2l8.4-2.4l1.9,50.2l0.3,8.8l8.3-3.1l20.1-7.5l4.4-1.6l-0.3-4.7l-2.8-51.3l19.4-5.6l4.6-1.3v-4.8
				v-15V167l-7.1,0.8l-19.7,2.3l-0.3-5.3l21.2-1.5l5.9-0.4v-5.9V137v-5.8l-5.7-0.6l-24-2.4l-2.6-38l-0.3-4.9l-4.8-0.9L120.5,81
				l-8-1.6l0.4,8.1l1.8,37.6l-5.8-0.6l-1-49.7l-0.1-4.9l-4.7-1.2l-31.5-7.9L62.9,58.7L62.9,58.7z M109.7,167.5l7-0.5l0.3,7.8
				l-7.2,1.2L109.7,167.5L109.7,167.5z"/>
		</g>
	</g>
</g>
<g>
	<g>
		<polygon class="st1" points="638.7,244.5 638.7,201.4 681.9,119.8 671.5,118.9 671.5,136.3 638.7,136.3 638.7,72 710.7,66.3 
			727.6,83.6 727.6,127 684.8,206.9 752.3,208.1 752.3,248.3 		"/>
		<g>
			<path d="M709.5,69.3l15.2,15.5v41.6L680,209.7l69.5,1.3v34.3l-107.8-3.5v-39.6l44.9-84.7l-18-1.6v17.7h-27V74.7L709.5,69.3
				 M711.8,63.3l-2.7,0.2l-67.9,5.4l-5.3,0.4v5.3v58.7v5.8h5.8h26.8l-31.9,60.1l-0.7,1.3v1.4v39.6v5.6l5.6,0.2l107.8,3.5l6,0.2v-6
				v-34.3v-5.7l-5.7-0.1l-60-1.1l40.3-75l0.7-1.3v-1.5V84.7v-2.4l-1.7-1.7l-15.2-15.5L711.8,63.3L711.8,63.3z M674.4,128v-5.9l3,0.3
				L674.4,128L674.4,128z"/>
		</g>
	</g>
	<g>
		<polygon class="st1" points="753.4,247.7 753.9,123.4 728,129 728,83.4 748.1,60 790.7,55.4 795.6,255.3 		"/>
		<path d="M787.9,58.6l4.8,193.2l-36.3-6.5l0.5-125.5l-26,5.7V84.5l18.7-21.8L787.9,58.6 M793.5,52.1l-6.3,0.7L748.9,57l-2.3,0.2
			l-1.5,1.7l-18.7,21.8l-1.4,1.6v2.1v40.9v7.2l7-1.5L751,127l-0.5,118.3l0,4.9l4.8,0.9l36.3,6.5l7,1.3l-0.2-7.1l-4.8-193.2
			L793.5,52.1L793.5,52.1z"/>
	</g>
</g>
<g>
	<g>
		<polygon class="st2" points="763.4,237.4 764,111.9 738,117.6 738,76.6 730.9,84.5 730.9,120.3 730.9,125.5 756.8,119.8 
			756.5,203.1 756.5,203.1 756.5,237.4 756.3,237.4 756.3,245.3 792.6,251.8 792.4,242.6 		"/>
	</g>
	<g>
		<polygon class="st2" points="668.6,125.6 648.7,125.6 648.7,74.2 641.6,74.7 641.6,133.5 668.6,133.5 		"/>
	</g>
	<g>
		<polygon class="st2" points="648.7,233.8 648.7,194.2 693.7,109.5 668.6,107.2 668.6,115.7 686.5,117.4 641.6,202.1 641.6,241.8 
			749.4,245.3 749.4,237.1 		"/>
	</g>
</g>
<g>
	<g>
		<polygon class="st3" points="178.2,190.6 185.9,187.8 186.2,118.8 165.5,117.2 160.7,65.7 259.2,71.8 250.1,133.1 225.7,133.1 
			225,233.1 176.6,244.3 		"/>
		<path d="M164.8,69.7l90.1,5.6l-8,54.1H222l-0.7,100.7l-40.8,9.4l1.4-46.4l7.7-2.8l0.3-75l-21-1.6L164.8,69.7 M156.6,61.7l0.8,8.6
			l4.1,44.1l0.6,6.2l6.2,0.5l14.1,1.1l-0.3,62.9l-2.9,1l-4.7,1.7l-0.2,5l-1.4,46.4l-0.3,9.6l9.4-2.2l40.8-9.4l5.7-1.3l0-5.9
			l0.7-93.3h17.5h6.4l0.9-6.3l8-54.1l1.2-8l-8.1-0.5l-90.1-5.6L156.6,61.7L156.6,61.7z"/>
	</g>
	<g>
		<polygon class="st3" points="411.9,233.4 370.8,79.4 425.6,79.4 435,197.1 435.2,79.4 480.1,79.4 472.7,233.4 		"/>
		<path d="M476.2,83.1l-7,146.6h-12.8h-41.6L375.7,83.1h46.5l9.5,119.3h7L439,83.1H476.2 M484,75.7h-7.8H439h-7.4l0,7.4l-0.1,23.4
			l-1.9-24l-0.5-6.8h-6.9h-46.5H366l2.5,9.4l39.1,146.6l1.5,5.5h5.7h41.6h12.8h7.1l0.3-7.1l7-146.6L484,75.7L484,75.7z"/>
	</g>
	<g>
		<polygon class="st3" points="472.3,233.4 480.7,79.4 570.9,79.4 566.4,123.8 513.8,122.7 515,194.3 537.4,194.1 537.9,174.7 
			515.2,174.2 514.6,136 565.1,136.9 559.9,233.4 		"/>
		<path d="M566.8,83.1L563,120l-53.1-1.1l1.3,79.2l29.7-0.3l0.7-26.7l-22.8-0.5l-0.5-30.8l42.8,0.8l-4.8,89.1h-80.1l8-146.6h36.9
			H566.8 M575,75.7h-8.2h-45.7h-36.9h-7l-0.4,7l-8,146.6l-0.4,7.8h7.9h80.1h7l0.4-7l4.8-89.1l0.4-7.7l-7.7-0.1l-42.8-0.8l-0.9,0
			l-0.1-5.8l45.3,0.9l6.9,0.1l0.7-6.8l3.8-36.9L575,75.7L575,75.7z M518.6,190.6l-0.2-12.6l0.3,0l15.4,0.3l-0.3,12.1L518.6,190.6
			L518.6,190.6z"/>
	</g>
	<g>
		<path class="st3" d="M558.8,233.4l11.7-154h66.3v154.9L558.8,233.4z M607.2,197.3l1.2-79.9h-3.5l-5.6,79.5L607.2,197.3z"/>
		<path d="M633.1,83.1v147.4l-70.2-0.8L574,83.1H633.1 M610.9,201.2l1.3-87.5h-10.7l-6.1,86.7L610.9,201.2 M640.5,75.7h-7.4H574
			h-6.9l-0.5,6.9l-11.1,146.6l-0.6,7.9l7.9,0.1L633,238l7.5,0.1v-7.5V83.1V75.7L640.5,75.7z M603.3,193.4l0.3-4.3l-0.1,4.3
			L603.3,193.4L603.3,193.4z"/>
	</g>
	<g>
		<path class="st3" d="M278.5,233.4l-3.3-68.4h-3.5l-4.9,68.4h-39.5l1-98.3h20.5l8.5-55.8h55.1l4.4,154H278.5z M274.8,138v-16
			l-1.4,16H274.8z"/>
		<path d="M308.8,83.1l4.2,146.6h-30.9l-3.3-68.4h-10.5l-4.9,68.4h-32.3l0.9-90.8h20l8.5-55.8H308.8 M269.3,141.7h9.2V111H272
			L269.3,141.7 M316,75.7h-7.2h-48.3h-6.4l-1,6.3l-7.6,49.4H232h-7.4l-0.1,7.4l-0.9,90.8l-0.1,7.5h7.5h32.3h6.9l0.5-6.9l2.3-32.5
			l1.5,32.3l0.3,7.1h7.1H313h7.6l-0.2-7.6l-4.2-146.6L316,75.7L316,75.7z"/>
	</g>
	<g>
		<path class="st3" d="M379.2,233.4l-25.8-43.1l7.3,43.1h-43.4l-4.4-154h57.5l22.3,89.2l-16.7,0.6l38.5,64.2H379.2z M346.2,138
			l-4.5-19.7l2.5,19.7H346.2z"/>
		<path d="M367.6,83.1l20.5,82l-18.4,0.7l38.4,63.9h-26.7l-34.9-58.3l9.9,58.3h-35.3l-4.2-146.6H367.6 M340.9,141.7h10l-6.9-30H337
			L340.9,141.7 M373.4,75.7h-5.8h-50.8h-7.7l0.2,7.6l4.2,146.6l0.2,7.2h7.2h35.3h8.8l-1.5-8.7l-3.3-19.3l14.6,24.4l2.2,3.6h4.2H408
			h13.1l-6.8-11.3l-31.9-53.1l5.8-0.2l9.2-0.3l-2.2-8.9l-20.5-82L373.4,75.7L373.4,75.7z"/>
	</g>
</g>
<g>
	<g>
		<path class="st4" d="M127.1,197.8l-14.7,4.2l0.3,28.8l-25.2,10.4l-1.7-31.7l-40.6,11.6l3.2-39l33.6-5.5l-1.4-17.9l-15.3,1.1
			l-3.1-45.3l14.4,1.4L71.2,55l38.2,9.6l1.1,55l12.3,1.2l-2.2-45.3l23.7,4.6l3,43.2l29.6,3v25.7l-27.3,2l0.7,11.8l26.6-3.1v21
			l-24.2,6.9l3,56.2l-26.5,9.8L127.1,197.8z M111.6,171.9l13.6-2.2l-0.6-14l-13.3,1L111.6,171.9z"/>
		<path d="M74.8,59.2l31.5,7.9l1.1,55.4l18.8,1.9l-2.1-45l17.3,3.4l3,43.4l29.4,3v19.9l-27.5,2l1,18.3l26.5-3v15l-24.3,6.9l3,56.4
			l-20.1,7.5l-2.2-58.3l-20.9,6l0.3,29.1l-19,7.9l-1.7-31.2l-40,11.4l2.6-31.9l34-5.6l-1.8-23.9l-15.2,1.1l-2.7-38.3l14.4,1.5
			L74.8,59.2 M108.4,175.6l20.1-3.3l-0.8-20.1l-19.6,1.4L108.4,175.6 M67.7,50.8l0.8,8.9l4.7,52.8l-6.8-0.7l-7.5-0.8l0.5,7.5L62,157
			l0.4,6.4l6.4-0.5l8.9-0.6l0.9,11.8l-28.3,4.6l-4.9,0.8l-0.4,5l-2.6,31.9l-0.7,9.2l8.9-2.5l32.3-9.2l1.3,23.2l0.5,9l8.3-3.5l19-7.9
			l4-1.7l-0.1-4.3l-0.3-24.2l8.4-2.4l1.9,50.2l0.3,8.8l8.3-3.1l20.1-7.5l4.4-1.6l-0.3-4.7l-2.8-51.3l19.4-5.6l4.6-1.3v-4.8v-15v-7.2
			l-7.1,0.8l-19.7,2.3l-0.3-5.3l21.2-1.5l5.9-0.4v-5.9v-19.9v-5.8l-5.7-0.6l-24-2.4l-2.6-38l-0.3-4.9l-4.8-0.9l-17.3-3.4l-8-1.6
			l0.4,8.1l1.8,37.6l-5.8-0.6l-1-49.7l-0.1-4.9l-4.7-1.2L76.4,53L67.7,50.8L67.7,50.8z M114.6,159.6l7-0.5l0.3,7.8l-7.2,1.2
			L114.6,159.6L114.6,159.6z"/>
	</g>
</g>
<g>
	<g>
		<path class="st5" d="M173.8,148.9v-19.9l-29.4-3l-3-43.4l-17.3-3.4l2.1,45l-18.8-1.9L106.3,67l-31.5-7.9l5.4,60.5l-14.4-1.5
			l2.7,38.3l15.2-1.1l1.8,23.9l-34,5.6l-2.6,31.9l40-11.4l1.7,31.2l19-7.9l-0.3-29.1l20.9-6l2.2,58.3l20.1-7.5l-3-56.4l24.3-6.9v-15
			l-26.5,3l-1-18.3L173.8,148.9z M128.5,172.3l-20.1,3.3l-0.4-21.9l19.6-1.4L128.5,172.3z"/>
	</g>
</g>
<g>
	<g>
		<polygon class="st6" points="133.6,125.1 131.5,80.8 124.1,79.4 126.2,124.3 		"/>
	</g>
	<g>
		<polygon class="st6" points="87.8,120.4 82.7,61.1 74.8,59.2 80.1,119.6 		"/>
	</g>
	<g>
		<polygon class="st6" points="145.9,143.9 146.3,150.9 173.8,148.9 173.8,141.9 		"/>
	</g>
	<g>
		<polygon class="st6" points="134.7,144.7 108,146.6 108.1,153.7 127.7,152.3 128.2,172.4 135.5,171.3 		"/>
	</g>
	<g>
		<polygon class="st6" points="149.1,182.7 149.4,188.1 173.8,181.2 173.8,175.6 		"/>
	</g>
	<g>
		<polygon class="st6" points="139.3,244.4 137.1,186.1 109.1,194.1 109.2,199.6 130.1,193.7 132.3,252 152.4,244.5 152.2,239.6 		
			"/>
	</g>
	<g>
		<polygon class="st6" points="97.5,229.1 95.8,197.9 55.8,209.3 57.9,183.9 51.4,185 48.8,216.9 88.8,205.4 90.5,236.6 
			109.5,228.7 109.5,224.1 		"/>
	</g>
	<g>
		<polygon class="st6" points="83.6,155.4 85.4,179.4 92.9,178.2 90.6,147.9 75.4,149 73.3,119 65.7,118.2 68.4,156.5 		"/>
	</g>
</g>
<g>
	<g>
		<g>
			<polygon class="st4" points="164.8,69.6 254.9,75.2 246.9,129.4 222,129.4 221.3,230.1 180.5,239.5 181.9,193.1 189.6,190.3 
				189.9,115.3 169,113.7 			"/>
		</g>
		<g>
			<polygon class="st4" points="375.7,83.1 414.8,229.7 456.4,229.7 469.2,229.7 476.2,83.1 439,83.1 438.7,202.4 431.7,202.4 
				422.1,83.1 			"/>
		</g>
		<g>
			<polygon class="st4" points="521.1,83.1 484.2,83.1 476.2,229.7 556.3,229.7 561.2,140.5 518.4,139.7 518.9,170.5 541.7,171.1 
				541,197.7 511.3,198.1 510,118.9 563,120 566.8,83.1 			"/>
		</g>
		<g>
			<path class="st4" d="M574,83.1l-11.1,146.6l70.2,0.8V83.1H574z M595.4,200.4l6.1-86.7h10.7l-1.3,87.5L595.4,200.4z"/>
		</g>
		<g>
			<path class="st4" d="M308.8,83.1h-48.3l-8.5,55.8h-20l-0.9,90.8h32.3l4.9-68.4h10.5l3.3,68.4H313L308.8,83.1z M278.5,141.7h-9.2
				l2.7-30.7h6.5V141.7z"/>
		</g>
		<g>
			<path class="st4" d="M369.7,165.7l18.4-0.7l-20.5-82h-50.8l4.2,146.6h35.3l-9.9-58.3l34.9,58.3H408L369.7,165.7z M340.9,141.7
				l-3.8-30h6.9l6.9,30H340.9z"/>
		</g>
	</g>
</g>
<g>
	<polygon class="st7" points="347.8,107.1 336.5,106.4 337,111.8 343.9,111.8 350.8,141.7 357.2,141.7 	"/>
	<polygon class="st7" points="283.2,141.7 285.1,106.4 272.8,106.4 272,111 278.5,110.9 278.5,141.7 	"/>
	<polygon class="st7" points="264.2,83.1 260.5,83.1 252,138.9 256.4,138.9 	"/>
	<polygon class="st7" points="247.9,122.8 222,123.4 222,129.9 246.9,129.4 	"/>
	<polygon class="st7" points="369.7,165.8 388.1,165 386.5,158.8 365.8,159.6 	"/>
	<polygon class="st7" points="518.9,170.5 541.7,171.1 541,197.8 545.5,197.8 546.9,164.3 525.5,164 525.1,139.8 518.4,139.7 	"/>
	<polygon class="st7" points="617.3,201.2 618.8,107.1 601.8,107.1 601.5,113.7 612.2,113.7 610.9,201.2 	"/>
	<polygon class="st7" points="510,118.9 563,120 563.7,113.3 510,112.2 	"/>
	<polygon class="st7" points="445.2,202.5 445.5,83.1 439,83.1 438.7,202.5 	"/>
	<polygon class="st7" points="237.6,223.1 238.5,138.8 232,138.8 231.1,229.7 263.3,229.7 263.8,223.1 	"/>
	<polygon class="st7" points="482.7,223.1 490.4,83.1 484.2,83.1 476.2,229.7 556.3,229.7 556.7,223.1 	"/>
	<polygon class="st7" points="387.9,223.1 350.8,168.7 346.4,171.4 357.1,189.2 381.3,229.7 408,229.7 404.1,223.1 	"/>
	<polygon class="st7" points="463,223.1 421.3,223.1 384,83.1 375.8,83.1 377.4,89.7 411.8,218.4 413,223.1 414.8,229.7 
		456.4,229.7 469.2,229.7 469.5,223.1 	"/>
	<polygon class="st7" points="569.4,223.1 580,83.1 574,83.1 562.8,229.7 633.1,230.5 633.1,223.9 	"/>
	<polygon class="st7" points="327.5,223.1 323.5,83.1 316.8,83.1 320.9,229.7 356.3,229.7 355.2,223.1 	"/>
	<polygon class="st7" points="189.6,190.3 196.1,187.9 196.5,108.8 175.5,107.1 172.1,70.1 164.8,69.6 169,113.7 189.9,115.3 	"/>
	<polygon class="st7" points="187,232.9 188.3,190.8 181.9,193.1 180.5,239.5 221.3,230.1 221.3,225 	"/>
	<polygon class="st7" points="288.6,223.1 285.4,156.4 268.8,156.4 268.3,161.3 278.8,161.3 282.1,229.7 313,229.7 312.8,223.1 	"/>
</g>
</svg>
