<svg xmlns="http://www.w3.org/2000/svg" viewBox="0 0 512 512"><path d="M473.885 212.673c-7.358-3.803-16.408-.918-20.211 6.441l-17.455 33.783-16.803-33.605a14.998 14.998 0 00-26.832 0L376 252.459l-16.584-33.167a14.996 14.996 0 00-14.334-8.264l-.908.056c-6.684.41-12.072 5.138-13.626 11.303-1.022-4.108-3.757-7.763-7.84-9.804-7.407-3.703-16.419-.702-20.124 6.708L286 252.459l-16.583-33.167a15.001 15.001 0 00-26.834 0L226 252.459l-16.583-33.167c-3.705-7.409-12.716-10.413-20.125-6.708-4.083 2.041-6.818 5.696-7.84 9.803-1.553-6.165-6.942-10.894-13.626-11.304l-.908-.056a14.995 14.995 0 00-14.334 8.264L136 252.459l-16.583-33.167c-5.461-10.895-21.253-11.161-26.833 0l-16.803 33.606-17.455-33.782c-3.802-7.36-12.851-10.243-20.211-6.441-7.36 3.803-10.244 12.852-6.441 20.212l31 60c5.627 10.892 21.255 10.798 26.743-.177L106 259.541l16.584 33.167c5.524 11.047 21.322 11.022 26.833 0l27.949-55.9a14.956 14.956 0 004.097-7.135 15.055 15.055 0 001.121 3.035l30 60c5.524 11.047 21.322 11.022 26.833 0L256 259.541l16.583 33.167c5.524 11.047 21.323 11.023 26.833 0l30-60.001c.494-.988.86-2.005 1.121-3.034a14.951 14.951 0 004.098 7.137l27.949 55.898c5.522 11.047 21.323 11.022 26.832 0L406 259.541l16.584 33.167c5.481 10.965 21.11 11.078 26.742.177l31-60.001c3.803-7.36.919-16.409-6.441-20.211z"/><path d="M493.032 159.329C454.912 66.291 362.617 0 256 0 149.356 0 57.078 66.314 18.969 159.328 7.501 167.492 0 180.882 0 196v120c0 15.118 7.501 28.508 18.969 36.672C57.087 445.707 149.381 512 256 512c106.644 0 198.921-66.314 237.032-159.329C504.499 344.507 512 331.117 512 316V196c0-15.117-7.501-28.507-18.968-36.671zM456.045 151h-76.687c-9.533-40.845-24.413-76.012-43.344-102.258a178.523 178.523 0 00-4.015-5.345C384.608 62.44 429.425 100.687 456.045 151zM271 32.512C312.045 46.293 337.711 108.43 348.486 151H271V32.512zm-30 0V151h-77.487c8.616-34.039 21.198-63.073 36.804-84.708 9.376-12.998 23.322-27.951 40.683-33.78zm-60.999 10.885a177.248 177.248 0 00-4.015 5.345C157.055 74.988 142.174 110.155 132.642 151H55.955c26.62-50.313 71.436-88.56 124.046-107.603zM55.955 361h76.687c8.73 37.405 23.727 77.315 47.359 107.603C127.391 449.56 82.575 411.313 55.955 361zM241 479.488C199.955 465.707 174.288 403.57 163.513 361H241v118.488zm30 0V360.8h77.487C337.695 403.433 311.958 465.736 271 479.488zm60.999-10.885c23.629-30.284 38.628-70.39 47.359-107.803h76.687c-26.62 50.313-71.436 88.76-124.046 107.803zM482 316c0 8.271-6.729 15-15 15H45c-8.271 0-15-6.729-15-15V196c0-8.271 6.729-15 15-15h422c8.271 0 15 6.729 15 15v120z"/></svg>